<?xml version="1.0" encoding="UTF-8" standalone="no"?>
<!-- Generator: Adobe Illustrator 12.0.1, SVG Export Plug-In . SVG Version: 6.00 Build 51448)  -->

<svg
   version="1.1"
   id="Layer_1"
   width="70"
   height="150"
   viewBox="0 0 70.000001 150"
   style="overflow:visible"
   xml:space="preserve"
   sodipodi:docname="DO_clef.svg"
   inkscape:version="1.3 (1:1.3+202307231459+0e150ed6c4)"
   xmlns:inkscape="http://www.inkscape.org/namespaces/inkscape"
   xmlns:sodipodi="http://sodipodi.sourceforge.net/DTD/sodipodi-0.dtd"
   xmlns="http://www.w3.org/2000/svg"
   xmlns:svg="http://www.w3.org/2000/svg"><defs
   id="defs81" /><sodipodi:namedview
   id="namedview81"
   pagecolor="#ffffff"
   bordercolor="#000000"
   borderopacity="0.25"
   inkscape:showpageshadow="2"
   inkscape:pageopacity="0.0"
   inkscape:pagecheckerboard="0"
   inkscape:deskcolor="#d1d1d1"
   inkscape:lockguides="false"
   inkscape:zoom="2.3264135"
   inkscape:cx="75.00816"
   inkscape:cy="97.360162"
   inkscape:window-width="1432"
   inkscape:window-height="1080"
   inkscape:window-x="573"
   inkscape:window-y="96"
   inkscape:window-maximized="0"
   inkscape:current-layer="g81" />&#10;<g
   id="g81">&#10;	&#10;	&#10;	&#10;	&#10;	&#10;	&#10;	<path
   d="M 23.639,107.73365 H 15 V 34.941663 h 8.639 z m 4.248,0 V 34.941663 h 2.881 v 72.791987 z m 9.936,-52.415987 c 0.336,1.104 0.648,2.208 0.938,3.312 0.527,1.633 1.295,2.881 2.303,3.744 1.393,1.152 3.289,1.705 5.689,1.656 4.512,-0.048 6.768,-4.224 6.768,-12.527 0,-3.552 -0.529,-6.744 -1.584,-9.576 -1.344,-3.695 -3.264,-5.544 -5.76,-5.544 -2.594,0 -4.826,0.504 -6.697,1.512 -1.584,0.816 -2.375,1.56 -2.375,2.231 0,0.337 0.287,0.457 0.863,0.36 0.863,-0.191 1.607,-0.287 2.232,-0.287 2.879,0 4.32,1.729 4.32,5.184 0,1.345 -0.625,2.497 -1.873,3.456 -1.057,0.769 -2.088,1.152 -3.096,1.152 -1.775,0 -3.24,-0.842 -4.393,-2.525 -1.008,-1.539 -1.416,-3.029 -1.223,-4.473 0.863,-6.107 6.168,-8.921 15.912,-8.44 3.264,0.145 6.119,1.813 8.568,5.009 2.447,3.195 3.672,7.002 3.672,11.422 0,4.564 -1.08,8.408 -3.24,11.531 -2.449,3.507 -5.809,5.236 -10.08,5.188 -1.92,0 -3.744,-0.479 -5.473,-1.44 -0.863,-0.575 -1.703,-1.151 -2.52,-1.728 -0.432,0.48 -0.936,1.704 -1.512,3.672 -0.529,1.729 -0.793,2.76 -0.793,3.096 0,0.287 0.264,1.319 0.793,3.096 0.576,1.92 1.08,3.144 1.512,3.672 0.816,-0.576 1.656,-1.152 2.52,-1.728 1.729,-0.96 3.553,-1.464 5.473,-1.512 4.271,0 7.631,1.753 10.08,5.261 2.16,3.123 3.24,6.966 3.24,11.53 0,4.419999 -1.225,8.214997 -3.672,11.386997 -2.449,3.16999 -5.305,4.85199 -8.568,5.04399 -9.744,0.48 -15.049,-2.333 -15.912,-8.43999 -0.193,-1.442999 0.215,-2.933998 1.223,-4.473002 1.152,-1.731 2.617,-2.596995 4.393,-2.596995 1.008,0 2.039,0.407 3.096,1.223995 1.248,0.912 1.873,2.063004 1.873,3.456004 0,3.407998 -1.514,5.111998 -4.537,5.111998 -0.576,0 -1.248,-0.072 -2.016,-0.216 -0.527,-0.145 -0.791,-0.049 -0.791,0.288 0,0.623 0.814,1.392 2.447,2.30399 1.969,1.056 4.152,1.56 6.553,1.512 2.496,0 4.416,-1.849 5.76,-5.54399 1.055,-2.880999 1.584,-6.072002 1.584,-9.575997 0,-8.352 -2.256,-12.527 -6.768,-12.527 -3.408,0 -5.762,1.151 -7.057,3.456 -0.721,1.728 -1.441,3.432 -2.16,5.111 0.191,-5.473 -1.609,-10.752 -5.4,-15.84 3.889,-5.088 5.783,-10.416 5.688,-15.985 z"
   id="path6" />&#10;	&#10;	&#10;	&#10;	&#10;	&#10;	&#10;	&#10;</g>&#10;</svg>
