<?xml version="1.0" encoding="UTF-8" standalone="no"?>
<!-- Generator: Adobe Illustrator 12.0.1, SVG Export Plug-In . SVG Version: 6.00 Build 51448)  -->

<svg
   version="1.1"
   id="Layer_1"
   width="70"
   height="150"
   viewBox="0 0 70.000001 150"
   style="overflow:visible"
   xml:space="preserve"
   sodipodi:docname="FA_clef.svg"
   inkscape:version="1.3 (1:1.3+202307231459+0e150ed6c4)"
   xmlns:inkscape="http://www.inkscape.org/namespaces/inkscape"
   xmlns:sodipodi="http://sodipodi.sourceforge.net/DTD/sodipodi-0.dtd"
   xmlns="http://www.w3.org/2000/svg"
   xmlns:svg="http://www.w3.org/2000/svg"><defs
   id="defs81" /><sodipodi:namedview
   id="namedview81"
   pagecolor="#ffffff"
   bordercolor="#000000"
   borderopacity="0.25"
   inkscape:showpageshadow="2"
   inkscape:pageopacity="0.0"
   inkscape:pagecheckerboard="0"
   inkscape:deskcolor="#d1d1d1"
   inkscape:lockguides="false"
   inkscape:zoom="0.8225114"
   inkscape:cx="-7.9026261"
   inkscape:cy="-65.044692"
   inkscape:window-width="1432"
   inkscape:window-height="1080"
   inkscape:window-x="573"
   inkscape:window-y="96"
   inkscape:window-maximized="0"
   inkscape:current-layer="g81" />&#10;<g
   id="g81">&#10;	&#10;	&#10;	&#10;	&#10;	&#10;	&#10;	&#10;	&#10;	&#10;	&#10;	<path
   d="m 44.750353,109.86748 c -1.486601,2.735 -3.356841,5.423 -5.61072,8.063 -2.253878,2.64 -4.651622,4.871 -7.19323,6.695 -2.925246,2.16 -6.545839,4.056 -10.861777,5.688 -2.685472,1.008 -6.545839,1.968 -11.5810999,2.88 L 9,132.11348 c 2.444699,-0.816 4.723554,-1.704 6.833568,-2.664 5.035261,-2.256 8.799718,-4.704 11.293371,-7.343 8.055419,-8.4 11.964739,-18.59999 11.724965,-30.597994 -0.04895,-4.031 -0.7433,-7.464 -2.086037,-10.296 -1.918194,-4.079 -4.867418,-6.119 -8.847672,-6.119 -2.829337,0 -5.538787,0.984 -8.12835,2.952 -2.829337,2.112 -4.124119,4.464 -3.884344,7.056 0.04795,0.145 0.143864,0.216 0.287729,0.216 2.637518,-0.672 4.57969,-0.983 5.826516,-0.936 1.67842,0.049 3.068112,0.864 4.172073,2.448 1.007053,1.393 1.510579,3.048 1.510579,4.968 0,2.063 -0.588446,3.768 -1.763341,5.112 -1.174894,1.343 -2.817348,2.016003 -4.927362,2.016003 -2.445698,0 -4.507758,-0.792003 -6.185179,-2.376003 -1.822285,-1.633 -2.733427,-3.769 -2.733427,-6.408 -0.144864,-6.72 2.51763,-11.592 7.984485,-14.616 2.973202,-1.631 6.25811,-2.471 9.854725,-2.52 3.691526,-0.096 7.28914,1.068 10.789845,3.492 3.500705,2.424 5.922426,5.508 7.265162,9.251 0.814234,2.256 1.222849,4.68 1.222849,7.271 0,2.256 -0.287729,4.751 -0.863187,7.487004 -0.624413,2.88 -1.823284,6 -3.596615,9.36099 z m 7.264163,-27.717994 c -0.04895,-1.104 0.311706,-2.015 1.078984,-2.735 0.767278,-0.72 1.702398,-1.104 2.80536,-1.152 1.102962,0 2.05007,0.349 2.841326,1.044 0.791255,0.696 1.186883,1.597 1.186883,2.7 0.04795,1.104 -0.323696,2.053 -1.114951,2.845 -0.791255,0.792 -1.714386,1.188 -2.768394,1.188 -1.102962,0.048 -2.05107,-0.312 -2.842325,-1.08 -0.791256,-0.768 -1.186883,-1.705 -1.186883,-2.81 z m 0,18.145004 c 0,-1.057001 0.383639,-1.956004 1.149917,-2.699004 0.767278,-0.745 1.702398,-1.141 2.806359,-1.188 1.102962,0 2.038082,0.359 2.80536,1.08 0.767278,0.72 1.174894,1.607003 1.223848,2.664004 0,1.104 -0.384638,2.051 -1.150917,2.844 -0.767278,0.791 -1.67842,1.188 -2.732428,1.188 -1.102962,0.048 -2.05107,-0.312 -2.842325,-1.079 -0.792254,-0.77 -1.211859,-1.707 -1.259814,-2.81 z"
   id="path10"
   style="stroke-width:0.99953" />&#10;	&#10;	&#10;	&#10;</g>&#10;</svg>
